<?xml version="1.0" encoding="UTF-8"?>
<svg id="Layer_1" xmlns="http://www.w3.org/2000/svg" version="1.1" viewBox="0 0 595.28 419.53">
  <!-- Generator: Adobe Illustrator 29.8.3, SVG Export Plug-In . SVG Version: 2.1.1 Build 3)  -->
  <defs>
    <style>
      .st0 {
        fill: #ff7321;
      }

      .st1, .st2, .st3 {
        fill: #fff;
      }

      .st4 {
        fill: #231f20;
      }

      .st2 {
        stroke-width: 3.77px;
      }

      .st2, .st3 {
        stroke: #000;
        stroke-miterlimit: 10;
      }

      .st3 {
        stroke-width: 7.53px;
      }
    </style>
  </defs>
  <rect x="64.99" y="150.45" width="442.13" height="143.03"/>
  <g>
    <path class="st1" d="M81.04,223.37v-55.44h41.58v27.72h-.04l-3.42,3.46,3.46,3.46v20.79h-13.86v-20.79h-13.86v20.79h-13.86ZM108.76,188.72v-6.93h-13.86v6.93h13.86Z"/>
    <path class="st1" d="M129.55,223.37v-55.44h41.58v13.86h-27.72v6.93h20.79v13.86h-20.79v6.93h27.72v13.86h-41.58Z"/>
    <path class="st1" d="M178.05,223.37v-13.86h27.72v-6.93h-27.72v-34.65h41.58v13.86h-27.72v6.93h27.72v34.65h-41.58Z"/>
    <path class="st1" d="M226.56,223.37v-55.44h41.58v34.65h-27.72v20.79h-13.86ZM254.28,188.72v-6.93h-13.86v6.93h13.86Z"/>
    <path class="st1" d="M275.07,223.37v-55.44h41.58v55.44h-13.86v-20.79h-13.86v20.79h-13.86ZM302.79,188.72v-6.93h-13.86v6.93h13.86Z"/>
    <path class="st1" d="M323.58,223.37v-55.44h13.86v41.58h6.93v-27.72h13.86v27.72h6.93v-41.58h13.86v55.44h-55.44Z"/>
    <path class="st1" d="M385.94,223.37v-55.44h41.58v55.44h-13.86v-41.58h-13.86v41.58h-13.86Z"/>
  </g>
  <g>
    <path class="st0" d="M78.36,274.78v-28.61h17.88l3.58,3.58v21.46l-3.58,3.58h-17.88ZM92.67,267.63v-14.31h-7.15v14.31h7.15Z"/>
    <path class="st0" d="M107.4,274.78v-28.61h21.46v14.31h-.02l-1.77,1.79,1.79,1.79v10.73h-7.15v-10.73h-7.15v10.73h-7.15ZM121.71,256.9v-3.58h-7.15v3.58h7.15Z"/>
    <path class="st0" d="M136.44,274.78v-28.61h21.46v28.61h-7.15v-10.73h-7.15v10.73h-7.15ZM150.75,256.9v-3.58h-7.15v3.58h7.15Z"/>
    <path class="st0" d="M165.48,274.78v-28.61h28.61v28.61h-7.15v-21.46h-3.58v14.31h-7.15v-14.31h-3.58v21.46h-7.15Z"/>
    <path class="st0" d="M201.68,274.78v-28.61h28.61v28.61h-7.15v-21.46h-3.58v14.31h-7.15v-14.31h-3.58v21.46h-7.15Z"/>
    <path class="st0" d="M237.87,274.78v-28.61h21.46v7.15h-14.31v3.58h10.73v7.15h-10.73v3.58h14.31v7.15h-21.46Z"/>
    <path class="st0" d="M266.91,274.78v-28.61h21.46v28.61h-7.15v-21.46h-7.15v21.46h-7.15Z"/>
  </g>
  <rect class="st3" x="441.24" y="134.7" width="90.57" height="79.54" rx="10.71" ry="10.71" transform="translate(-26.64 112.8) rotate(-12.88)"/>
  <g>
    <rect class="st4" x="473.65" y="166.09" width="29.96" height="24.27" transform="translate(-27.43 113.36) rotate(-12.88)"/>
    <rect class="st4" x="503.9" y="170.94" width="18.81" height="23.22" transform="translate(-27.77 118.97) rotate(-12.88)"/>
    <rect class="st4" x="458.98" y="181.21" width="18.81" height="23.22" transform="translate(-31.19 109.22) rotate(-12.88)"/>
    <rect class="st4" x="456.14" y="152.89" width="14.64" height="18.07" transform="translate(-24.43 107.34) rotate(-12.88)"/>
    <rect class="st4" x="498.07" y="143.3" width="14.64" height="18.07" transform="translate(-21.24 116.45) rotate(-12.88)"/>
  </g>
  <path class="st2" d="M528.12,249.05l-17.17-2.54c-1.15-.17-2.26.09-3.19.64l1.46-9.87-42.81-6.35-1.48,10.01c-.82-.89-1.91-1.54-3.2-1.73l-16.11-2.39c-2.98-.44-5.75,1.61-6.19,4.59l-3.32,22.41c-.44,2.98,1.61,5.75,4.59,6.19l16.11,2.39c2.98.44,5.75-1.61,6.19-4.59l.5-3.36,38.97,5.78-.58,3.89c-.4,2.68,1.46,5.18,4.14,5.58l17.17,2.54c2.68.4,5.18-1.46,5.58-4.14l3.48-23.47c.4-2.68-1.46-5.18-4.14-5.58Z"/>
  <polygon points="454.31 252.14 451.66 253.29 449.46 251.42 450.48 244.57 455.33 245.29 454.31 252.14"/>
  <polygon points="448.68 256.66 451.34 255.51 453.54 257.38 452.52 264.23 447.67 263.51 448.68 256.66"/>
  <polygon points="453.76 257.22 452.61 254.56 454.48 252.36 461.33 253.38 460.61 258.23 453.76 257.22"/>
  <polygon points="449.24 251.59 450.39 254.24 448.52 256.44 441.67 255.42 442.39 250.57 449.24 251.59"/>
  <circle cx="517.7" cy="257.13" r="3.17"/>
  <circle cx="515.79" cy="270.03" r="3.17"/>
  <circle cx="523.19" cy="264.54" r="3.17"/>
  <circle cx="510.3" cy="262.63" r="3.17"/>
</svg>