<?xml version="1.0" encoding="UTF-8"?>
<svg id="Layer_1" xmlns="http://www.w3.org/2000/svg" version="1.1" viewBox="0 0 595.28 419.53">
  <!-- Generator: Adobe Illustrator 29.8.3, SVG Export Plug-In . SVG Version: 2.1.1 Build 3)  -->
  <defs>
    <style>
      .st0 {
        fill: #ff7321;
      }

      .st1 {
        fill: #fff;
      }

      .st2 {
        fill: #231f20;
      }
    </style>
  </defs>
  <g>
    <path class="st1" d="M67.03,230.77v-57.6h43.2v28.8h-.04l-3.56,3.6,3.6,3.6v21.6h-14.4v-21.6h-14.4v21.6h-14.4ZM95.83,194.77v-7.2h-14.4v7.2h14.4Z"/>
    <path class="st1" d="M117.44,230.77v-57.6h43.2v14.4h-28.8v7.2h21.6v14.4h-21.6v7.2h28.8v14.4h-43.2Z"/>
    <path class="st1" d="M167.84,230.77v-14.4h28.8v-7.2h-28.8v-36h43.2v14.4h-28.8v7.2h28.8v36h-43.2Z"/>
    <path class="st1" d="M218.25,230.77v-57.6h43.2v36h-28.8v21.6h-14.4ZM247.05,194.77v-7.2h-14.4v7.2h14.4Z"/>
    <path class="st1" d="M268.65,230.77v-57.6h43.2v57.6h-14.4v-21.6h-14.4v21.6h-14.4ZM297.45,194.77v-7.2h-14.4v7.2h14.4Z"/>
    <path class="st1" d="M319.05,230.77v-57.6h14.4v43.2h7.2v-28.8h14.4v28.8h7.2v-43.2h14.4v57.6h-57.61Z"/>
    <path class="st1" d="M383.86,230.77v-57.6h43.2v57.6h-14.4v-43.2h-14.4v43.2h-14.4Z"/>
  </g>
  <g>
    <path class="st0" d="M64.24,284.2v-29.73h18.58l3.72,3.72v22.3l-3.72,3.72h-18.58ZM79.11,276.76v-14.87h-7.43v14.87h7.43Z"/>
    <path class="st0" d="M94.42,284.2v-29.73h22.3v14.87h-.02l-1.84,1.86,1.86,1.86v11.15h-7.43v-11.15h-7.43v11.15h-7.43ZM109.29,265.62v-3.72h-7.43v3.72h7.43Z"/>
    <path class="st0" d="M124.6,284.2v-29.73h22.3v29.73h-7.43v-11.15h-7.43v11.15h-7.43ZM139.46,265.62v-3.72h-7.43v3.72h7.43Z"/>
    <path class="st0" d="M154.78,284.2v-29.73h29.73v29.73h-7.43v-22.3h-3.72v14.87h-7.43v-14.87h-3.72v22.3h-7.43Z"/>
    <path class="st0" d="M192.39,284.2v-29.73h29.73v29.73h-7.43v-22.3h-3.72v14.87h-7.43v-14.87h-3.72v22.3h-7.43Z"/>
    <path class="st0" d="M230,284.2v-29.73h22.3v7.43h-14.87v3.72h11.15v7.43h-11.15v3.72h14.87v7.43h-22.3Z"/>
    <path class="st0" d="M260.18,284.2v-29.73h22.3v29.73h-7.43v-22.3h-7.43v22.3h-7.43Z"/>
  </g>
  <rect class="st1" x="441.32" y="138.63" width="94.11" height="82.65" rx="10.71" ry="10.71" transform="translate(-27.82 113.35) rotate(-12.88)"/>
  <g>
    <rect class="st2" x="475" y="171.26" width="31.13" height="25.22" transform="translate(-28.64 113.93) rotate(-12.88)"/>
    <rect class="st2" x="506.44" y="176.29" width="19.55" height="24.13" transform="translate(-28.99 119.76) rotate(-12.88)"/>
    <rect class="st2" x="459.76" y="186.96" width="19.55" height="24.13" transform="translate(-32.54 109.63) rotate(-12.88)"/>
    <rect class="st2" x="456.81" y="157.53" width="15.21" height="18.78" transform="translate(-25.52 107.68) rotate(-12.88)"/>
    <rect class="st2" x="500.38" y="147.57" width="15.21" height="18.78" transform="translate(-22.2 117.14) rotate(-12.88)"/>
  </g>
  <path class="st1" d="M531.61,257.46l-17.84-2.64c-1.2-.18-2.34.1-3.31.66l1.52-10.25-44.49-6.59-1.54,10.4c-.85-.93-1.99-1.6-3.33-1.79l-16.74-2.48c-3.09-.46-5.97,1.68-6.43,4.77l-3.45,23.28c-.46,3.09,1.68,5.97,4.77,6.43l16.74,2.48c3.09.46,5.97-1.68,6.43-4.77l.52-3.49,40.5,6-.6,4.04c-.41,2.79,1.51,5.39,4.3,5.8l17.84,2.64c2.79.41,5.39-1.51,5.8-4.3l3.61-24.39c.41-2.79-1.51-5.39-4.3-5.8Z"/>
  <polygon points="454.91 260.67 452.15 261.87 449.87 259.93 450.92 252.8 455.96 253.55 454.91 260.67"/>
  <polygon points="449.06 265.36 451.81 264.17 454.1 266.11 453.05 273.23 448 272.48 449.06 265.36"/>
  <polygon points="454.33 265.94 453.13 263.19 455.08 260.9 462.2 261.96 461.45 267 454.33 265.94"/>
  <polygon points="449.64 260.09 450.83 262.85 448.89 265.14 441.77 264.08 442.52 259.04 449.64 260.09"/>
  <circle cx="520.78" cy="265.86" r="3.29"/>
  <circle cx="518.79" cy="279.26" r="3.29"/>
  <circle cx="526.48" cy="273.55" r="3.29"/>
  <circle cx="513.08" cy="271.57" r="3.29"/>
</svg>